<?xml version="1.0" encoding="UTF-8" standalone="no"?>
<!-- Created with Inkscape (http://www.inkscape.org/) -->

<svg
   width="10.822311"
   height="9.0676394"
   viewBox="0 0 2.8634031 2.3991464"
   version="1.1"
   id="svg1"
   xml:space="preserve"
   xmlns="http://www.w3.org/2000/svg"
   xmlns:svg="http://www.w3.org/2000/svg"><defs
     id="defs1" /><g
     id="layer1"
     transform="translate(-33.890441,-289.04698)"><path
       id="path6"
       style="fill:#007aff;stroke-linecap:round;stroke-linejoin:round;stroke-miterlimit:0;paint-order:fill markers stroke"
       d="m 34.619076,289.04698 c -0.489701,0 -0.712618,0.3359 -0.712618,0.3359 a 0.1000225,0.1000225 0 0 0 -0.01602,0.0527 v 1.85156 a 0.1000225,0.1000225 0 0 0 0.148828,0.0879 c 0,0 0.09487,-0.0521 0.226343,-0.10542 0.131469,-0.0534 0.299245,-0.10542 0.42788,-0.10542 0.122328,0 0.268023,0.0611 0.378789,0.12661 0.110765,0.0655 0.183451,0.13126 0.183451,0.13126 a 0.1000225,0.1000225 0 0 0 0.130225,0 0.1000225,0.1000225 0 0 0 5.16e-4,0 c 0,0 0.005,-0.004 0.0083,-0.007 a 0.1000225,0.1000225 0 0 0 5.16e-4,-5.2e-4 c 0.01942,-0.0163 0.08439,-0.0691 0.177251,-0.12402 0.110765,-0.0655 0.25646,-0.12661 0.378788,-0.12661 0.128635,0 0.295895,0.0521 0.427364,0.10542 0.131469,0.0534 0.224792,0.10542 0.224792,0.10542 a 0.1000225,0.1000225 0 0 0 0.150379,-0.0879 v -1.85156 a 0.1000225,0.1000225 0 0 0 -0.0155,-0.0527 c 0,0 -0.223435,-0.3359 -0.713135,-0.3359 -0.343584,0 -0.587063,0.16231 -0.702799,0.25993 -0.115711,-0.0976 -0.359671,-0.25993 -0.703317,-0.25993 z m 0,0.19895 c 0.387025,0 0.587475,0.23606 0.603581,0.25425 v 1.65416 c -0.0245,-0.0165 -0.01928,-0.0177 -0.04858,-0.0351 -0.126946,-0.0751 -0.296994,-0.15451 -0.480591,-0.15451 -0.177289,0 -0.360395,0.0611 -0.503845,0.11938 -0.05756,0.0234 -0.05893,0.0273 -0.09973,0.047 v -1.64848 c 0.0069,-0.0115 0.135984,-0.23668 0.529166,-0.23668 z m 1.406116,0 c 0.391431,0 0.519512,0.2212 0.527617,0.23462 v 1.65054 c -0.04081,-0.0197 -0.04217,-0.0236 -0.09974,-0.047 -0.14345,-0.0582 -0.324489,-0.11938 -0.501778,-0.11938 -0.183597,0 -0.353645,0.0794 -0.480591,0.15451 -0.02858,0.0169 -0.02456,0.017 -0.04858,0.0331 v -1.6521 c 0.01611,-0.0182 0.216039,-0.25425 0.603064,-0.25425 z" /></g></svg>
