<?xml version="1.0" encoding="UTF-8" standalone="no"?>
<!-- Created with Inkscape (http://www.inkscape.org/) -->

<svg
   width="10.193359"
   height="10.039068"
   viewBox="0 0 2.6969929 2.6561703"
   version="1.1"
   id="svg1"
   xml:space="preserve"
   xmlns="http://www.w3.org/2000/svg"
   xmlns:svg="http://www.w3.org/2000/svg"><defs
     id="defs1" /><g
     id="layer1"
     transform="translate(-44.615366,-288.91417)"><path
       id="rect8"
       style="fill:#007aff;stroke-linecap:round;stroke-linejoin:round;stroke-miterlimit:0;paint-order:fill markers stroke"
       d="m 44.886667,288.91417 c -0.148795,0 -0.271301,0.1225 -0.271301,0.2713 v 1.55081 c 0,0.14879 0.122506,0.2713 0.271301,0.2713 h 0.332279 v 0.28939 c 0,0.14878 0.122482,0.27337 0.271302,0.27337 h 1.548742 c 0.148765,0 0.273369,-0.12456 0.273369,-0.27337 v -1.54874 c 0,-0.14878 -0.124548,-0.27182 -0.273369,-0.27182 h -0.330212 v -0.29094 c 0,-0.1488 -0.124573,-0.2713 -0.273368,-0.2713 z m 0,0.20309 h 1.548743 c 0.03992,0 0.07028,0.0282 0.07028,0.0682 v 0.29094 h -1.015442 c -0.14876,0 -0.271302,0.123 -0.271302,0.27182 v 1.05678 h -0.332279 c -0.03992,0 -0.06821,-0.0287 -0.06821,-0.0687 v -1.55081 c 0,-0.0399 0.02829,-0.0682 0.06821,-0.0682 z m 0.603581,0.56224 h 1.548742 c 0.0399,0 0.07028,0.0288 0.07028,0.0687 v 1.54874 c 0,0.04 -0.03032,0.0703 -0.07028,0.0703 h -1.548742 c -0.0399,0 -0.06821,-0.0304 -0.06821,-0.0703 v -1.54874 c 0,-0.04 0.02826,-0.0687 0.06821,-0.0687 z" /></g></svg>
