<?xml version="1.0" encoding="UTF-8" standalone="no"?>
<!-- Created with Inkscape (http://www.inkscape.org/) -->

<svg
   width="8.5117188"
   height="10.791003"
   viewBox="0 0 2.2520589 2.8551198"
   version="1.1"
   id="svg1"
   xml:space="preserve"
   xmlns="http://www.w3.org/2000/svg"
   xmlns:svg="http://www.w3.org/2000/svg"><defs
     id="defs1" /><g
     id="layer1"
     transform="translate(-23.629049,-288.75604)"><path
       id="rect2"
       style="display:inline;fill:#007aff;stroke-linecap:round;stroke-linejoin:round;stroke-miterlimit:0;paint-order:fill markers stroke"
       d="m 24.763864,288.75604 a 0.1,0.1 0 0 0 -0.0098,0.002 0.1,0.1 0 0 0 -0.0057,0.001 0.1,0.1 0 0 0 -0.02635,0.008 0.1,0.1 0 0 0 -0.01499,0.008 0.1,0.1 0 0 0 -0.0031,0.002 0.1,0.1 0 0 0 -0.0047,0.003 l -0.396358,0.33228 a 0.1,0.1 0 0 0 -0.01395,0.14056 0.1,0.1 0 0 0 0.14056,0.0114 l 0.234611,-0.1943 v 1.48363 a 0.1,0.1 0 0 0 0.09974,0.0997 0.1,0.1 0 0 0 0.09922,-0.0997 v -1.48105 l 0.257866,0.21756 a 0.1,0.1 0 0 0 0.14056,-0.0119 0.1,0.1 0 0 0 -0.01137,-0.14056 l -0.411344,-0.34675 a 0.1,0.1 0 0 0 -0.07493,-0.0341 z m -0.787549,0.82011 c -0.190647,0 -0.347266,0.15507 -0.347266,0.34571 v 1.34204 c 0,0.19065 0.156619,0.34726 0.347266,0.34726 h 1.557011 c 0.190647,0 0.347782,-0.15661 0.347782,-0.34726 v -1.34204 c 0,-0.19064 -0.157135,-0.34571 -0.347782,-0.34571 h -0.472323 v 0.1912 h 0.472323 c 0.08732,0 0.153996,0.0672 0.153996,0.15451 v 1.34204 c 0,0.0873 -0.06667,0.15399 -0.153996,0.15399 h -1.557011 c -0.08732,0 -0.153996,-0.0667 -0.153996,-0.15399 v -1.34204 c 0,-0.0873 0.06667,-0.15451 0.153996,-0.15451 h 0.452169 v -0.1912 z" /></g></svg>
