<?xml version="1.0" encoding="UTF-8" standalone="no"?>
<!-- Created with Inkscape (http://www.inkscape.org/) -->

<svg
   width="6.9824715"
   height="8.2324162"
   viewBox="0 0 1.8474455 2.1781603"
   version="1.1"
   id="svg1"
   xml:space="preserve"
   xmlns="http://www.w3.org/2000/svg"
   xmlns:svg="http://www.w3.org/2000/svg"><defs
     id="defs1" /><g
     id="layer1"
     transform="translate(-5.5371236,-283.4158)"><path
       id="rect12"
       style="fill:#ffffff;stroke-linecap:round;stroke-linejoin:round;stroke-miterlimit:0;paint-order:fill markers stroke"
       d="m 5.8260011,283.4158 c -0.1522141,0 -0.2769857,0.12736 -0.2769857,0.27957 v 0.59583 c 0,0.15221 0.1247716,0.27698 0.2769857,0.27698 H 7.091557 c 0.1522141,0 0.2775024,-0.12477 0.2775024,-0.27698 v -0.59583 c 0,-0.15221 -0.1252883,-0.27957 -0.2775024,-0.27957 z m 0,0.20722 H 7.091557 c 0.041878,0 0.072347,0.0305 0.072347,0.0724 v 0.59583 c 0,0.0419 -0.030469,0.0723 -0.072347,0.0723 H 5.8260011 c -0.041878,0 -0.072347,-0.0304 -0.072347,-0.0723 v -0.59583 c 0,-0.0419 0.030469,-0.0724 0.072347,-0.0724 z m -0.1891357,1.25574 a 0.100651,0.100651 0 0 0 -0.099735,0.0997 0.100651,0.100651 0 0 0 0.099735,0.10181 h 1.6464111 a 0.100651,0.100651 0 0 0 0.1012859,-0.10181 0.100651,0.100651 0 0 0 -0.1012859,-0.0997 z m 0.01757,0.51573 a 0.1002315,0.1002315 0 0 0 -0.099736,0.0997 0.1002315,0.1002315 0 0 0 0.099736,0.0997 h 1.1384318 a 0.1002315,0.1002315 0 0 0 0.099736,-0.0997 0.1002315,0.1002315 0 0 0 -0.099736,-0.0997 z" /></g></svg>
