<svg width="54" height="21" viewBox="0 0 54 21" fill="none" xmlns="http://www.w3.org/2000/svg">
<path d="M17.3492 6.24805C15.0714 6.24805 13.3941 7.77881 13.3941 9.91016V9.9248C13.3941 11.9097 14.8297 13.3745 16.8658 13.3745C18.294 13.3745 19.3487 12.6421 19.7662 11.6753H19.8101C19.8101 11.7925 19.8028 11.9023 19.7955 12.0122C19.7222 14.0117 19.0118 15.6377 17.3126 15.6377C16.3678 15.6377 15.7232 15.1689 15.4376 14.4438L15.4156 14.3779H13.5406L13.5553 14.4585C13.8848 16.0552 15.3497 17.1831 17.3053 17.1831C20.0006 17.1831 21.6192 15.0957 21.6192 11.6021V11.5874C21.6192 7.88135 19.6783 6.24805 17.3492 6.24805ZM17.3492 11.917C16.148 11.917 15.2545 11.0601 15.2545 9.85889V9.84424C15.2545 8.70166 16.1993 7.79346 17.3712 7.79346C18.5577 7.79346 19.4805 8.70898 19.4805 9.88086V9.88818C19.4805 11.0674 18.5577 11.917 17.3492 11.917ZM23.6976 10.0859C24.2909 10.0859 24.7523 9.61719 24.7523 9.02393C24.7523 8.43066 24.2909 7.96924 23.6976 7.96924C23.1044 7.96924 22.6356 8.43066 22.6356 9.02393C22.6356 9.61719 23.1044 10.0859 23.6976 10.0859ZM23.6976 15.4619C24.2909 15.4619 24.7523 14.9932 24.7523 14.3999C24.7523 13.8066 24.2909 13.3452 23.6976 13.3452C23.1044 13.3452 22.6356 13.8066 22.6356 14.3999C22.6356 14.9932 23.1044 15.4619 23.6976 15.4619ZM30.9689 17H32.7706V14.9712H34.2062V13.4185H32.7706V6.43115H30.0827L25.6954 13.3599V14.9712H30.9689V17ZM27.3947 13.4624V13.4111L30.9542 7.85938H30.9982V13.4624H27.3947ZM37.8007 17H39.6537V6.43115H37.7861L35.0248 8.37207V10.1079L37.7568 8.23291H37.8007V17Z" fill="black"/>
</svg>
